<mxfile host="app.diagrams.net" modified="2023-10-18T07:06:10.642Z" agent="Mozilla/5.0 (Windows NT 10.0; Win64; x64) AppleWebKit/537.36 (KHTML, like Gecko) Chrome/118.0.0.0 Safari/537.36 Edg/118.0.2088.46" version="21.5.2" etag="hTbRlebg5q8RRNmfP61-" type="github">
  <diagram name="페이지-1" id="d2uSXshdNXhudu5ovRo4">
    <mxGraphModel>
      <root>
        <mxCell id="0" />
        <mxCell id="1" parent="0" />
      </root>
    </mxGraphModel>
  </diagram>
</mxfile>
